# xmcd
#
# Track frame offsets: 
#        150
#        31337
#        47292
#        65865
#        90047
#        117347
#        133327
#        151665
#        173360
#        189945
#        212035
#        231940
#        259107
#        280190
#        298905
#
# Disc length: 4228 seconds
#
# Revision: 0
# Processed by: cddbd v1.5.2PL0 Copyright (c) Steve Scherf et al.
# Submitted via: ExactAudioCopyFreeDBPlugin 1.0
#
DISCID=cc10820f
DTITLE=Philippe LeJeune - Piano Groove
DYEAR=1999
DGENRE=Blues
TTITLE0=C.C. Rider
TTITLE1=Death Ray Boogie
TTITLE2=Misterioso
TTITLE3=Lady Be Good
TTITLE4=Slow Freight
TTITLE5=Just A Closer Walk With Thee
TTITLE6=San Francisco Bay Mellow
TTITLE7=Blues For Nightowls
TTITLE8=Jitterbug Waltz
TTITLE9=Blues In My Heart
TTITLE10=Pinetop's Boogie Woogie
TTITLE11=Lil' Darlin'
TTITLE12=The Sidewinder
TTITLE13=Night Train
TTITLE14=Six Keys Boogie
EXTD=
EXTT0=
EXTT1=
EXTT2=
EXTT3=
EXTT4=
EXTT5=
EXTT6=
EXTT7=
EXTT8=
EXTT9=
EXTT10=
EXTT11=
EXTT12=
EXTT13=
EXTT14=
PLAYORDER=
